<?xml version="1.0" encoding="UTF-8" standalone="no"?>
<svg
   xmlns:dc="http://purl.org/dc/elements/1.1/"
   xmlns:cc="http://creativecommons.org/ns#"
   xmlns:rdf="http://www.w3.org/1999/02/22-rdf-syntax-ns#"
   xmlns:svg="http://www.w3.org/2000/svg"
   xmlns="http://www.w3.org/2000/svg"
   xmlns:sodipodi="http://sodipodi.sourceforge.net/DTD/sodipodi-0.dtd"
   xmlns:inkscape="http://www.inkscape.org/namespaces/inkscape"
   height="134"
   id="Layer_1"
   version="1.1"
   viewBox="0 0 67 134"
   width="67"
   xml:space="preserve"
   inkscape:version="0.91 r13725"
   sodipodi:docname="facebook_icon.svg"><metadata
     id="metadata9"><rdf:RDF><cc:Work
         rdf:about=""><dc:format>image/svg+xml</dc:format><dc:type
           rdf:resource="http://purl.org/dc/dcmitype/StillImage" /><dc:title></dc:title></cc:Work></rdf:RDF></metadata><defs
     id="defs7" /><sodipodi:namedview
     pagecolor="#ffffff"
     bordercolor="#666666"
     borderopacity="1"
     objecttolerance="10"
     gridtolerance="10"
     guidetolerance="10"
     inkscape:pageopacity="0"
     inkscape:pageshadow="2"
     inkscape:window-width="1920"
     inkscape:window-height="1056"
     id="namedview5"
     showgrid="false"
     inkscape:zoom="2.3959573"
     inkscape:cx="6.539842"
     inkscape:cy="117.58373"
     inkscape:window-x="0"
     inkscape:window-y="24"
     inkscape:window-maximized="1"
     inkscape:current-layer="Layer_1" /><path
     d="m 29.765,117.32 6.744,0 0,-16.322 4.499,0 0.596,-5.624 -5.095,0 0.007,-2.816 c 0,-1.466 0.14,-2.253 2.244,-2.253 l 2.812,0 0,-5.625 -4.5,0 c -5.405,0 -7.307,2.729 -7.307,7.317 l 0,3.377 -3.369,0 0,5.625 3.369,0 0,16.321 z M 34,131 C 17.432,131 4,117.568 4,101 4,84.431 17.432,71 34,71 c 16.568,0 30,13.431 30,30 0,16.568 -13.432,30 -30,30 z"
     style="clip-rule:evenodd;fill:#5b79bd;fill-rule:evenodd;fill-opacity:1"
     id="path3"
     inkscape:connector-curvature="0" /><path
     d="m 29.765,50.32 6.744,0 0,-16.321997 4.499,0 0.596,-5.624 -5.095,0 0.007,-2.816 c 0,-1.466 0.14,-2.253 2.244,-2.253 l 2.812,0 0,-5.625 -4.5,0 c -5.405,0 -7.307,2.729 -7.307,7.317 l 0,3.377 -3.369,0 0,5.625 3.369,0 0,16.320997 z M 34,64 C 17.432,64 4,50.568 4,34.000003 c 0,-16.569 13.432,-30 30,-30 16.568,0 30,13.431 30,30 C 64,50.568 50.568,64 34,64 Z"
     style="clip-rule:evenodd;fill:#3a589b;fill-rule:evenodd"
     id="path3-6"
     inkscape:connector-curvature="0" /></svg>