<?xml version="1.0" encoding="UTF-8" standalone="no"?>
<svg
   xmlns:dc="http://purl.org/dc/elements/1.1/"
   xmlns:cc="http://creativecommons.org/ns#"
   xmlns:rdf="http://www.w3.org/1999/02/22-rdf-syntax-ns#"
   xmlns:svg="http://www.w3.org/2000/svg"
   xmlns="http://www.w3.org/2000/svg"
   xmlns:sodipodi="http://sodipodi.sourceforge.net/DTD/sodipodi-0.dtd"
   xmlns:inkscape="http://www.inkscape.org/namespaces/inkscape"
   height="134"
   preserveAspectRatio="xMidYMid"
   viewBox="0 0 67 134"
   width="67"
   id="svg2"
   version="1.1"
   inkscape:version="0.91 r13725"
   sodipodi:docname="vkontakte_icon.svg">
  <metadata
     id="metadata16">
    <rdf:RDF>
      <cc:Work
         rdf:about="">
        <dc:format>image/svg+xml</dc:format>
        <dc:type
           rdf:resource="http://purl.org/dc/dcmitype/StillImage" />
        <dc:title />
      </cc:Work>
    </rdf:RDF>
  </metadata>
  <sodipodi:namedview
     pagecolor="#ffffff"
     bordercolor="#666666"
     borderopacity="1"
     objecttolerance="10"
     gridtolerance="10"
     guidetolerance="10"
     inkscape:pageopacity="0"
     inkscape:pageshadow="2"
     inkscape:window-width="1920"
     inkscape:window-height="1056"
     id="namedview14"
     showgrid="false"
     inkscape:zoom="18.635646"
     inkscape:cx="0.77958708"
     inkscape:cy="64.3042"
     inkscape:window-x="0"
     inkscape:window-y="24"
     inkscape:window-maximized="1"
     inkscape:current-layer="svg2" />
  <defs
     id="defs4">
    <style
       id="style6">
      .cls-1 {
        fill: #fff;
      }

      .cls-2 {
        fill: #4c75a3;
      }

      .cls-2, .cls-3 {
        fill-rule: evenodd;
      }

      .cls-3 {
        fill: #000;
        opacity: 0.1;
      }
    </style>
  </defs>
  <circle
     class="cls-1"
     cx="256"
     cy="-122"
     r="256"
     id="circle8"
     style="fill:#ffffff" />
  <path
     class="cls-2"
     d="m 33.5,131 c -16.568555,0 -30,-13.43145 -30,-30 0,-16.568554 13.431445,-30 30,-30 16.568554,0 30,13.431446 30,30 0,16.56855 -13.431446,30 -30,30 z M 51.343203,91.808633 c -0.536485,-0.452812 -2.605781,-0.434766 -4.658204,-0.423516 -2.097655,0.01148 -4.178437,0.02321 -4.65832,0.211758 -0.44543,0.175078 -1.449023,2.591719 -2.7525,5.083359 -1.474101,2.817661 -3.295078,5.525046 -4.446562,5.506996 -1.492266,-0.0233 -1.147031,-4.654569 -1.05879,-8.048674 0.05871,-2.253869 -0.306796,-2.956759 -0.635155,-3.177071 -0.796876,-0.53461 -2.964375,-1.059024 -2.964375,-1.059024 0,0 -6.481055,-0.491719 -7.41082,2.329805 1.232578,0.161836 3.363398,-0.232383 2.540859,8.472304 -0.03997,0.42269 -0.992696,4.00898 -4.023048,-0.847143 -0.748593,-1.199654 -3.65707,-8.444888 -4.658202,-8.47231 -3.361407,-0.0921 -6.657421,-0.230977 -7.8344532,0.423516 -1.0726172,0.596602 1.4518362,5.605431 5.7169932,12.284887 3.48785,5.46223 7.181718,9.72949 13.551326,10.80222 1.189805,0.11895 4.3275,0.26098 5.293478,-0.21188 0.674061,-0.32999 -0.144961,-5.06694 2.117343,-5.50698 1.017188,-0.19782 4.882149,4.91965 6.352149,5.50698 0.891796,0.35626 2.857734,0.48857 4.870077,0.42365 2.176993,-0.0703 4.631719,0.18995 4.869961,-1.27091 0.532735,-3.26612 -6.561562,-7.51289 -6.775664,-9.53133 -0.153514,-1.44785 2.595,-4.11692 4.023048,-6.142375 1.740117,-2.467973 3.625781,-5.438442 2.540859,-6.354262 z"
     id="path10"
     inkscape:connector-curvature="0"
     style="fill:#6a93c2;fill-rule:evenodd;fill-opacity:1" />
  <path
     class="cls-2"
     d="M 33.500003,64 C 16.931447,64 3.5,50.568551 3.5,33.999997 3.5,17.431442 16.931447,3.9999949 33.500003,3.9999949 50.068562,3.9999949 63.5,17.431442 63.5,33.999997 63.5,50.568551 50.068562,64 33.500003,64 Z M 51.343206,24.808629 c -0.536482,-0.452812 -2.60578,-0.434765 -4.658207,-0.423515 -2.097651,0.01148 -4.178431,0.02321 -4.658319,0.211758 -0.445424,0.175078 -1.449021,2.591718 -2.752496,5.083359 -1.474103,2.817661 -3.29508,5.525045 -4.446564,5.506994 -1.492267,-0.02329 -1.147032,-4.654567 -1.05879,-8.048673 0.05871,-2.253868 -0.306796,-2.956758 -0.635156,-3.17707 -0.796875,-0.53461 -2.964374,-1.059024 -2.964374,-1.059024 0,0 -6.481057,-0.49172 -7.410822,2.329805 1.232578,0.161836 3.363399,-0.232383 2.54086,8.472301 -0.03997,0.422694 -0.992696,4.008986 -4.023048,-0.84714 -0.748594,-1.199654 -3.65707,-8.444888 -4.658203,-8.47231 -3.361407,-0.09211 -6.657422,-0.230977 -7.834454,0.423515 -1.072617,0.596603 1.451836,5.605433 5.716994,12.284887 3.48785,5.462228 7.181719,9.729489 13.551327,10.802218 1.189805,0.118953 4.327501,0.26098 5.293478,-0.211871 0.674062,-0.32999 -0.144961,-5.06695 2.117344,-5.506983 1.017188,-0.197817 4.882144,4.919644 6.352144,5.506983 0.891804,0.356258 2.857739,0.488563 4.870079,0.423641 2.176993,-0.07027 4.631725,0.189956 4.869966,-1.270902 0.532729,-3.266126 -6.56156,-7.512896 -6.775668,-9.531336 -0.153509,-1.447851 2.595,-4.116916 4.023051,-6.142374 1.740112,-2.467973 3.62578,-5.438442 2.540858,-6.354263 z"
     id="path10-4"
     inkscape:connector-curvature="0"
     style="fill:#4c75a3;fill-rule:evenodd" />
</svg>
